HIERARCHY
ROOT Hips
{
	OFFSET 0.053599 88.859886 3.107447
	CHANNELS 6 Xposition Yposition Zposition Zrotation Yrotation Xrotation 
	JOINT Spine
	{
		OFFSET -0.000000 8.814246 -2.080107
		CHANNELS 3 Zrotation Yrotation Xrotation
		JOINT Spine1
		{
			OFFSET 0.000000 8.844141 0.000000
			CHANNELS 3 Zrotation Yrotation Xrotation
			JOINT Spine2
			{
				OFFSET -0.000000 11.682268 0.000000
				CHANNELS 3 Zrotation Yrotation Xrotation
				JOINT Spine3
				{
					OFFSET 0.000000 11.746700 0.000000
					CHANNELS 3 Zrotation Yrotation Xrotation
					JOINT Neck
					{
						OFFSET -0.000000 17.658264 -0.000000
						CHANNELS 3 Zrotation Yrotation Xrotation
						JOINT Neck1
						{
							OFFSET -0.000000 5.101515 -0.000000
							CHANNELS 3 Zrotation Yrotation Xrotation
							JOINT Head
							{
								OFFSET 0.000000 5.101515 0.000000
								CHANNELS 3 Zrotation Yrotation Xrotation
								JOINT HeadEnd
								{
									OFFSET 0.000000 11.655085 0.000000
									CHANNELS 3 Zrotation Yrotation Xrotation
									End Site
									{
										OFFSET 0.000000 0.000000 0.000000
									}
								}
							}
						}
					}
					JOINT RightShoulder
					{
						OFFSET -2.625389 11.175210 0.000000
						CHANNELS 3 Zrotation Yrotation Xrotation
						JOINT RightArm
						{
							OFFSET -0.000000 10.434715 -0.000000
							CHANNELS 3 Zrotation Yrotation Xrotation
							JOINT RightForeArm
							{
								OFFSET -0.000000 29.628420 0.000000
								CHANNELS 3 Zrotation Yrotation Xrotation
								JOINT RightHand
								{
									OFFSET -0.000000 22.857611 0.000000
									CHANNELS 3 Zrotation Yrotation Xrotation
									JOINT RightHandThumb1
									{
										OFFSET -2.867323 3.959563 2.944291
										CHANNELS 3 Zrotation Yrotation Xrotation
										JOINT RightHandThumb2
										{
											OFFSET 0.000000 3.350399 0.000000
											CHANNELS 3 Zrotation Yrotation Xrotation
											JOINT RightHandThumb3
											{
												OFFSET 0.000000 3.756509 -0.000000
												CHANNELS 3 Zrotation Yrotation Xrotation
												JOINT RightHandThumb4
												{
													OFFSET 0.000000 3.147345 0.000000
													CHANNELS 3 Zrotation Yrotation Xrotation
													End Site
													{
														OFFSET 0.000000 0.000000 0.000000
													}
												}
											}
										}
									}
									JOINT RightHandIndex1
									{
										OFFSET -0.086752 10.030893 2.345280
										CHANNELS 3 Zrotation Yrotation Xrotation
										JOINT RightHandIndex2
										{
											OFFSET -0.000000 4.061090 0.000000
											CHANNELS 3 Zrotation Yrotation Xrotation
											JOINT RightHandIndex3
											{
												OFFSET -0.000000 3.248873 0.000000
												CHANNELS 3 Zrotation Yrotation Xrotation
												JOINT RightHandIndex4
												{
													OFFSET 0.000000 2.639709 -0.000000
													CHANNELS 3 Zrotation Yrotation Xrotation
													End Site
													{
														OFFSET 0.000000 0.000000 0.000000
													}
												}
											}
										}
									}
									JOINT RightHandMiddle1
									{
										OFFSET 0.104102 9.502952 0.006768
										CHANNELS 3 Zrotation Yrotation Xrotation
										JOINT RightHandMiddle2
										{
											OFFSET 0.000000 4.568727 0.000000
											CHANNELS 3 Zrotation Yrotation Xrotation
											JOINT RightHandMiddle3
											{
												OFFSET 0.000000 3.654981 -0.000000
												CHANNELS 3 Zrotation Yrotation Xrotation
												JOINT RightHandMiddle4
												{
													OFFSET -0.000000 2.741236 -0.000000
													CHANNELS 3 Zrotation Yrotation Xrotation
													End Site
													{
														OFFSET 0.000000 0.000000 0.000000
													}
												}
											}
										}
									}
									JOINT RightHandRing1
									{
										OFFSET 0.086752 8.921708 -2.267442
										CHANNELS 3 Zrotation Yrotation Xrotation
										JOINT RightHandRing2
										{
											OFFSET -0.000000 4.061090 0.000000
											CHANNELS 3 Zrotation Yrotation Xrotation
											JOINT RightHandRing3
											{
												OFFSET 0.000000 3.654981 -0.000000
												CHANNELS 3 Zrotation Yrotation Xrotation
												JOINT RightHandRing4
												{
													OFFSET 0.000000 2.741236 -0.000000
													CHANNELS 3 Zrotation Yrotation Xrotation
													End Site
													{
														OFFSET 0.000000 0.000000 0.000000
													}
												}
											}
										}
									}
									JOINT RightHandPinky1
									{
										OFFSET -0.173504 7.976997 -4.467199
										CHANNELS 3 Zrotation Yrotation Xrotation
										JOINT RightHandPinky2
										{
											OFFSET 0.000000 3.350399 -0.000000
											CHANNELS 3 Zrotation Yrotation Xrotation
											JOINT RightHandPinky3
											{
												OFFSET -0.000000 2.842763 0.000000
												CHANNELS 3 Zrotation Yrotation Xrotation
												JOINT RightHandPinky4
												{
													OFFSET -0.000000 2.639709 0.000000
													CHANNELS 3 Zrotation Yrotation Xrotation
													End Site
													{
														OFFSET 0.000000 0.000000 0.000000
													}
												}
											}
										}
									}
									JOINT RightForeArmEnd
									{
										OFFSET 0.000000 0.000000 0.000000
										CHANNELS 3 Zrotation Yrotation Xrotation
										End Site
										{
											OFFSET 0.000000 0.000000 0.000000
										}
									}
								}
								JOINT RightArmEnd
								{
									OFFSET 0.000000 0.000000 0.000000
									CHANNELS 3 Zrotation Yrotation Xrotation
									End Site
									{
										OFFSET 0.000000 0.000000 0.000000
									}
								}
							}
						}
					}
					JOINT LeftShoulder
					{
						OFFSET 2.625389 11.175210 0.000000
						CHANNELS 3 Zrotation Yrotation Xrotation
						JOINT LeftArm
						{
							OFFSET 0.000000 10.813635 -0.000000
							CHANNELS 3 Zrotation Yrotation Xrotation
							JOINT LeftForeArm
							{
								OFFSET 0.000000 28.724781 0.000000
								CHANNELS 3 Zrotation Yrotation Xrotation
								JOINT LeftHand
								{
									OFFSET 0.644384 25.716167 -0.328871
									CHANNELS 3 Zrotation Yrotation Xrotation
									JOINT LeftHandThumb1
									{
										OFFSET 2.867323 3.959563 2.944291
										CHANNELS 3 Zrotation Yrotation Xrotation
										JOINT LeftHandThumb2
										{
											OFFSET 0.000000 3.350399 0.000000
											CHANNELS 3 Zrotation Yrotation Xrotation
											JOINT LeftHandThumb3
											{
												OFFSET -0.000000 3.756509 0.000000
												CHANNELS 3 Zrotation Yrotation Xrotation
												JOINT LeftHandThumb4
												{
													OFFSET -0.000000 3.100000 0.000000
													CHANNELS 3 Zrotation Yrotation Xrotation
													End Site
													{
														OFFSET 0.000000 0.000000 0.000000
													}
												}
											}
										}
									}
									JOINT LeftHandIndex1
									{
										OFFSET 0.086752 10.030893 2.345280
										CHANNELS 3 Zrotation Yrotation Xrotation
										JOINT LeftHandIndex2
										{
											OFFSET -0.000000 4.061090 -0.000000
											CHANNELS 3 Zrotation Yrotation Xrotation
											JOINT LeftHandIndex3
											{
												OFFSET 0.000000 3.248873 -0.000000
												CHANNELS 3 Zrotation Yrotation Xrotation
												JOINT LeftHandIndex4
												{
													OFFSET 0.000000 2.639709 -0.000000
													CHANNELS 3 Zrotation Yrotation Xrotation
													End Site
													{
														OFFSET 0.000000 0.000000 0.000000
													}
												}
											}
										}
									}
									JOINT LeftHandMiddle1
									{
										OFFSET -0.104102 9.502952 0.006768
										CHANNELS 3 Zrotation Yrotation Xrotation
										JOINT LeftHandMiddle2
										{
											OFFSET -0.000000 4.568727 -0.000000
											CHANNELS 3 Zrotation Yrotation Xrotation
											JOINT LeftHandMiddle3
											{
												OFFSET 0.000000 3.654981 0.000000
												CHANNELS 3 Zrotation Yrotation Xrotation
												JOINT LeftHandMiddle4
												{
													OFFSET 0.000000 2.741236 -0.000000
													CHANNELS 3 Zrotation Yrotation Xrotation
													End Site
													{
														OFFSET 0.000000 0.000000 0.000000
													}
												}
											}
										}
									}
									JOINT LeftHandRing1
									{
										OFFSET -0.086752 8.921708 -2.267442
										CHANNELS 3 Zrotation Yrotation Xrotation
										JOINT LeftHandRing2
										{
											OFFSET 0.000000 4.061090 0.000000
											CHANNELS 3 Zrotation Yrotation Xrotation
											JOINT LeftHandRing3
											{
												OFFSET 0.000000 3.654981 0.000000
												CHANNELS 3 Zrotation Yrotation Xrotation
												JOINT LeftHandRing4
												{
													OFFSET 0.000000 2.741236 0.000000
													CHANNELS 3 Zrotation Yrotation Xrotation
													End Site
													{
														OFFSET 0.000000 0.000000 0.000000
													}
												}
											}
										}
									}
									JOINT LeftHandPinky1
									{
										OFFSET 0.173504 7.976997 -4.467199
										CHANNELS 3 Zrotation Yrotation Xrotation
										JOINT LeftHandPinky2
										{
											OFFSET -0.000000 3.350399 -0.000000
											CHANNELS 3 Zrotation Yrotation Xrotation
											JOINT LeftHandPinky3
											{
												OFFSET 0.000000 2.842763 0.000000
												CHANNELS 3 Zrotation Yrotation Xrotation
												JOINT LeftHandPinky4
												{
													OFFSET -0.000000 2.639709 -0.000000
													CHANNELS 3 Zrotation Yrotation Xrotation
													End Site
													{
														OFFSET 0.000000 0.000000 0.000000
													}
												}
											}
										}
									}
									JOINT LeftForeArmEnd
									{
										OFFSET 0.000000 0.000000 0.000000
										CHANNELS 3 Zrotation Yrotation Xrotation
										End Site
										{
											OFFSET 0.000000 0.000000 0.000000
										}
									}
								}
								JOINT LeftArmEnd
								{
									OFFSET 0.000000 0.000000 0.000000
									CHANNELS 3 Zrotation Yrotation Xrotation
									End Site
									{
										OFFSET 0.000000 0.000000 0.000000
									}
								}
							}
						}
					}
				}
			}
		}
	}
	JOINT RightUpLeg
	{
		OFFSET -11.289943 0.000000 0.000000
		CHANNELS 3 Zrotation Yrotation Xrotation
		JOINT RightLeg
		{
			OFFSET 0.000000 -38.200325 0.000000
			CHANNELS 3 Zrotation Yrotation Xrotation
			JOINT RightFoot
			{
				OFFSET -0.000000 -39.900856 -0.000000
				CHANNELS 3 Zrotation Yrotation Xrotation
				JOINT RightToeBase
				{
					OFFSET 0.000000 0.000000 15.261641
					CHANNELS 3 Zrotation Yrotation Xrotation
					JOINT RightToeBaseEnd
					{
						OFFSET 0.000000 0.000000 7.370709
						CHANNELS 3 Zrotation Yrotation Xrotation
						End Site
						{
							OFFSET 0.000000 0.000000 0.000000
						}
					}
				}
				JOINT RightLegEnd
				{
					OFFSET 0.000000 0.000000 0.000000
					CHANNELS 3 Zrotation Yrotation Xrotation
					End Site
					{
						OFFSET 0.000000 0.000000 0.000000
					}
				}
			}
			JOINT RightUpLegEnd
			{
				OFFSET 0.000000 0.000000 0.000000
				CHANNELS 3 Zrotation Yrotation Xrotation
				End Site
				{
					OFFSET 0.000000 0.000000 0.000000
				}
			}
		}
	}
	JOINT LeftUpLeg
	{
		OFFSET 11.315661 -0.000000 0.000000
		CHANNELS 3 Zrotation Yrotation Xrotation
		JOINT LeftLeg
		{
			OFFSET -0.000000 -38.200325 -0.000000
			CHANNELS 3 Zrotation Yrotation Xrotation
			JOINT LeftFoot
			{
				OFFSET 0.000000 -39.900856 -0.000000
				CHANNELS 3 Zrotation Yrotation Xrotation
				JOINT LeftToeBase
				{
					OFFSET -0.000000 -0.000000 15.261641
					CHANNELS 3 Zrotation Yrotation Xrotation
					JOINT LeftToeBaseEnd
					{
						OFFSET 0.000000 -0.000000 7.539996
						CHANNELS 3 Zrotation Yrotation Xrotation
						End Site
						{
							OFFSET 0.000000 0.000000 0.000000
						}
					}
				}
				JOINT LeftLegEnd
				{
					OFFSET 0.000000 0.000000 0.000000
					CHANNELS 3 Zrotation Yrotation Xrotation
					End Site
					{
						OFFSET 0.000000 0.000000 0.000000
					}
				}
			}
			JOINT LeftUpLegEnd
			{
				OFFSET 0.000000 0.000000 0.000000
				CHANNELS 3 Zrotation Yrotation Xrotation
				End Site
				{
					OFFSET 0.000000 0.000000 0.000000
				}
			}
		}
	}
}
MOTION
Frames: 4
Frame Time: 0.016667
0.101019 88.881180 2.566031 0.114921 0.581230 -11.149866 1.046728 -0.002090 6.889174 -0.641072 0.317035 3.377070 -0.172039 -0.205952 4.923209 -1.362750 0.366228 5.167076 1.907266 -0.206018 4.809597 0.233039 0.579966 -3.427184 -0.044660 -0.666605 -19.771021 0.000000 0.000000 0.000000 92.100533 -0.367988 10.573101 69.158340 -20.717741 4.711474 0.206454 17.674982 28.456032 -14.141455 5.352660 -4.681738 15.303337 31.700483 66.675346 -3.185712 -3.584583 -6.811249 -2.177750 -2.305691 -4.526886 0.000000 0.000000 0.000000 -23.867613 -4.827383 13.599560 0.886745 0.522655 0.424907 0.687697 0.069933 0.415431 0.000000 0.000000 0.000000 -22.403755 0.395840 8.618655 0.174116 0.532515 0.127659 0.686016 0.022150 0.118442 0.000000 0.000000 0.000000 -19.522154 7.975950 2.885157 0.877250 -1.028803 -0.274278 0.811946 -0.044342 -0.163196 0.000000 0.000000 0.000000 -17.567646 16.047092 -3.727075 1.369537 -1.996395 -0.850386 1.236385 0.007056 -0.697325 0.000000 0.000000 0.000000 0.000000 0.000000 0.000000 0.000000 0.000000 0.000000 -90.130791 0.332767 5.734537 -70.343956 17.238523 -3.965618 0.102897 -10.296292 57.819160 24.838968 -1.529017 -8.111344 -14.679758 -31.977779 67.376556 2.290929 2.145664 -4.458797 1.526682 1.512891 -3.058027 0.000000 0.000000 0.000000 23.959593 -13.331373 19.872847 -0.854830 0.525743 -0.327234 -0.787840 0.041232 -0.362045 0.000000 0.000000 0.000000 23.203449 -7.743671 13.147412 -0.886058 0.516672 -0.157443 -0.966217 0.029284 -0.111357 0.000000 0.000000 0.000000 19.393074 1.072095 5.331548 -2.056237 -1.046973 0.338255 -2.305371 -0.037130 0.235445 0.000000 0.000000 0.000000 13.441192 11.167201 -2.936656 -3.642613 -1.989297 1.159489 -3.318267 0.079981 1.047099 0.000000 0.000000 0.000000 0.000000 0.000000 0.000000 0.000000 0.000000 0.000000 -0.984486 -10.700521 15.055220 -0.058524 -0.687886 4.739052 -3.131266 -8.411686 17.708212 -0.900304 0.759868 -18.409157 0.000000 0.000000 0.000000 0.000000 0.000000 0.000000 0.000000 0.000000 0.000000 -1.258716 -6.216420 10.024663 0.068610 0.356742 9.517381 3.735247 -1.776918 17.245827 0.252136 -0.510899 -20.425047 0.000000 0.000000 0.000000 0.000000 0.000000 0.000000 0.000000 0.000000 0.000000 
0.090536 88.879326 2.576554 0.116941 0.617961 -11.188117 1.044894 -0.003779 6.893945 -0.644645 0.320812 3.384184 -0.175358 -0.208747 4.933870 -1.353209 0.362110 5.190316 1.900586 -0.229775 4.830031 0.239146 0.559407 -3.411442 -0.045534 -0.682670 -19.758759 0.000000 0.000000 0.000000 92.131065 -0.370526 10.540895 69.129738 -20.626455 4.641845 0.217376 17.765978 28.579821 -13.955969 5.628139 -4.666691 15.368516 31.675219 66.606316 -3.278312 -3.705110 -7.024250 -2.246624 -2.389065 -4.678248 0.000000 0.000000 0.000000 -23.272081 -4.929282 13.547400 0.844225 0.523789 0.437735 0.639475 0.071242 0.429693 0.000000 0.000000 0.000000 -21.790983 0.296920 8.606318 0.126369 0.533063 0.132107 0.645022 0.022666 0.122726 0.000000 0.000000 0.000000 -18.824490 7.871412 2.951302 0.850712 -1.029346 -0.279412 0.777587 -0.044670 -0.167381 0.000000 0.000000 0.000000 -16.830425 15.956518 -3.600270 1.384037 -1.997575 -0.860817 1.237772 0.004467 -0.703847 0.000000 0.000000 0.000000 0.000000 0.000000 0.000000 0.000000 0.000000 0.000000 -90.155853 0.354402 5.711887 -70.263969 17.075981 -3.997836 0.080443 -10.431384 57.977852 24.617136 -1.770164 -8.155464 -14.750047 -31.948597 67.301315 2.397635 2.282317 -4.689476 1.602153 1.602998 -3.220206 0.000000 0.000000 0.000000 23.275404 -13.226949 19.724945 -0.792502 0.526297 -0.332252 -0.735039 0.041886 -0.366946 0.000000 0.000000 0.000000 22.520128 -7.638026 13.040863 -0.832057 0.516569 -0.159857 -0.916314 0.029386 -0.113785 0.000000 0.000000 0.000000 18.654867 1.197517 5.289069 -2.042555 -1.046140 0.344414 -2.283229 -0.036831 0.240876 0.000000 0.000000 0.000000 12.698974 11.296665 -2.926236 -3.685973 -1.986017 1.183860 -3.357463 0.081679 1.068815 0.000000 0.000000 0.000000 0.000000 0.000000 0.000000 0.000000 0.000000 0.000000 -0.995774 -10.702749 15.114079 -0.059015 -0.688900 4.720988 -3.124688 -8.387441 17.704630 -0.897651 0.760740 -18.404461 0.000000 0.000000 0.000000 0.000000 0.000000 0.000000 0.000000 0.000000 0.000000 -1.266457 -6.226196 10.060583 0.068713 0.357275 9.519201 3.730696 -1.787976 17.219032 0.249643 -0.513635 -20.424448 0.000000 0.000000 0.000000 0.000000 0.000000 0.000000 0.000000 0.000000 0.000000 
0.079758 88.876526 2.588311 0.117841 0.648472 -11.225936 1.042557 -0.005151 6.901814 -0.649066 0.324929 3.387541 -0.177122 -0.214073 4.946381 -1.346016 0.357426 5.215454 1.887522 -0.258029 4.856630 0.242368 0.530482 -3.391814 -0.045361 -0.699462 -19.753098 0.000000 0.000000 0.000000 92.164429 -0.375367 10.502988 69.094139 -20.529324 4.594995 0.229481 17.850714 28.669247 -13.680758 5.989323 -4.703846 15.449298 31.643400 66.518730 -3.394236 -3.856093 -7.290123 -2.332444 -2.493237 -4.867127 0.000000 0.000000 0.000000 -22.547249 -5.055414 13.468431 0.795432 0.524774 0.453288 0.583087 0.072299 0.446431 0.000000 0.000000 0.000000 -21.044813 0.174962 8.578643 0.069251 0.533435 0.137659 0.595870 0.022977 0.128076 0.000000 0.000000 0.000000 -17.976336 7.743355 3.026346 0.812137 -1.029571 -0.286080 0.732799 -0.044680 -0.172860 0.000000 0.000000 0.000000 -15.936471 15.842292 -3.447314 1.391334 -1.998566 -0.874255 1.230467 0.002122 -0.712692 0.000000 0.000000 0.000000 0.000000 0.000000 0.000000 0.000000 0.000000 0.000000 -90.182549 0.376619 5.683743 -70.192413 16.884924 -4.029976 0.058901 -10.571305 58.110695 24.283993 -2.118795 -8.256873 -14.833714 -31.913025 67.209152 2.526408 2.445062 -4.967820 1.693194 1.710942 -3.415489 0.000000 0.000000 0.000000 22.463585 -13.101185 19.538641 -0.724863 0.526559 -0.341325 -0.678052 0.042308 -0.375807 0.000000 0.000000 0.000000 21.702507 -7.510187 12.906358 -0.773349 0.516317 -0.163996 -0.860247 0.029340 -0.117641 0.000000 0.000000 0.000000 17.759323 1.349465 5.236995 -2.028609 -1.045135 0.352802 -2.260319 -0.036324 0.248034 0.000000 0.000000 0.000000 11.797951 11.453004 -2.915356 -3.734967 -1.982581 1.215134 -3.401917 0.083499 1.096604 0.000000 0.000000 0.000000 0.000000 0.000000 0.000000 0.000000 0.000000 0.000000 -1.005411 -10.702140 15.171822 -0.059679 -0.690036 4.706996 -3.120427 -8.363881 17.699690 -0.894386 0.761717 -18.400723 0.000000 0.000000 0.000000 0.000000 0.000000 0.000000 0.000000 0.000000 0.000000 -1.274649 -6.230589 10.095175 0.068689 0.357845 9.524559 3.728156 -1.796710 17.189373 0.247468 -0.515909 -20.422293 0.000000 0.000000 0.000000 0.000000 0.000000 0.000000 0.000000 0.000000 0.000000 
0.068912 88.872299 2.600762 0.117482 0.673075 -11.262914 1.040641 -0.006231 6.913845 -0.654564 0.329631 3.385568 -0.178067 -0.220764 4.963949 -1.341473 0.352980 5.240954 1.869927 -0.292544 4.892011 0.243032 0.491516 -3.367691 -0.043493 -0.716987 -19.754837 0.000000 0.000000 0.000000 92.203400 -0.382651 10.461530 69.049751 -20.425831 4.573031 0.243455 17.934572 28.722908 -13.296142 6.450782 -4.792724 15.548663 31.603563 66.408623 -3.538536 -4.043178 -7.619590 -2.438604 -2.622082 -5.100920 0.000000 0.000000 0.000000 -21.663952 -5.209711 13.357321 0.738025 0.525305 0.472182 0.516171 0.072831 0.466167 0.000000 0.000000 0.000000 -20.136009 0.025500 8.531487 0.001473 0.533433 0.144628 0.537133 0.022953 0.134730 0.000000 0.000000 0.000000 -16.949493 7.585851 3.110242 0.762706 -1.029178 -0.294614 0.679113 -0.044171 -0.179838 0.000000 0.000000 0.000000 -14.859654 15.696928 -3.265604 1.396102 -1.998656 -0.891648 1.218525 0.000575 -0.724528 0.000000 0.000000 0.000000 0.000000 0.000000 0.000000 0.000000 0.000000 0.000000 -90.212776 0.399041 5.648859 -70.126541 16.657177 -4.061662 0.036239 -10.726768 58.224586 23.816114 -2.601698 -8.426464 -14.935743 -31.869162 67.094482 2.683825 2.643353 -5.309677 1.804689 1.842994 -3.655176 0.000000 0.000000 0.000000 21.484783 -12.946835 19.299995 -0.651709 0.525921 -0.356926 -0.616672 0.041913 -0.390774 0.000000 0.000000 0.000000 20.710159 -7.353181 12.733381 -0.710549 0.515652 -0.170743 -0.799042 0.028895 -0.123695 0.000000 0.000000 0.000000 16.661707 1.535415 5.170617 -2.017641 -1.043591 0.364539 -2.239562 -0.035306 0.257808 0.000000 0.000000 0.000000 10.694019 11.642922 -2.905951 -3.796447 -1.977929 1.257099 -3.457651 0.086353 1.133825 0.000000 0.000000 0.000000 0.000000 0.000000 0.000000 0.000000 0.000000 0.000000 -1.013229 -10.701140 15.228123 -0.060444 -0.691266 4.697487 -3.119759 -8.339898 17.692226 -0.890109 0.762718 -18.398010 0.000000 0.000000 0.000000 0.000000 0.000000 0.000000 0.000000 0.000000 0.000000 -1.282717 -6.231540 10.126212 0.068505 0.358328 9.535440 3.728740 -1.804166 17.157051 0.245551 -0.517412 -20.419811 0.000000 0.000000 0.000000 0.000000 0.000000 0.000000 0.000000 0.000000 0.000000 
